<?xml version="1.0" encoding="UTF-8" standalone="no"?>
<!DOCTYPE svg PUBLIC "-//W3C//DTD SVG 1.1//EN" "http://www.w3.org/Graphics/SVG/1.1/DTD/svg11.dtd">
<svg version="1.1" xmlns="http://www.w3.org/2000/svg" xmlns:xlink="http://www.w3.org/1999/xlink" preserveAspectRatio="xMidYMid meet" viewBox="0 0 640 640" width="640" height="640"><defs><path d="M570 180L470 230L320 150L170 230L70 180L320 40L570 180Z" id="h1vjtNBhf5"></path><path d="M320 320L470 400L320 480L170 400L320 320Z" id="c7WhzSnzp"></path><path d="M320 150L320 320L170 400L170 230L320 150Z" id="jjSZSTj5n"></path><path d="M470 400L470 230L570 180L570 450L320 590L320 480L470 400Z" id="bc2Zilgcf"></path><path d="M320 320L470 400L470 230L320 150L320 320Z" id="ggYMqR8zo"></path><path d="M70 450L320 590L320 480L170 400L170 230L70 180L70 450Z" id="d2wXUBfR5s"></path></defs><g><g><g><use xlink:href="#h1vjtNBhf5" opacity="1" fill="#ffffff" fill-opacity="1"></use></g><g><use xlink:href="#c7WhzSnzp" opacity="1" fill="#ffffff" fill-opacity="1"></use></g><g><use xlink:href="#jjSZSTj5n" opacity="1" fill="#3b3f46" fill-opacity="1"></use></g><g><use xlink:href="#bc2Zilgcf" opacity="1" fill="#3b3f46" fill-opacity="1"></use><g><use xlink:href="#bc2Zilgcf" opacity="1" fill-opacity="0" stroke="#2f3136" stroke-width="0" stroke-opacity="1"></use></g></g><g><use xlink:href="#ggYMqR8zo" opacity="1" fill="#242526" fill-opacity="1"></use></g><g><use xlink:href="#d2wXUBfR5s" opacity="1" fill="#242526" fill-opacity="1"></use></g></g></g></svg>