<?xml version="1.0" encoding="UTF-8" standalone="no"?>
<svg
   xmlns:svg="http://www.w3.org/2000/svg"
   xmlns="http://www.w3.org/2000/svg"
   xmlns:xlink="http://www.w3.org/1999/xlink"
   viewBox="0 0 640 640"
   width="640"
   height="640">
 
  <defs
     id="defs3771">
    <path
       d="M570 180l-100 50-150-80-150 80-100-50L320 40l250 140z"
       id="a" />
    <path
       d="M320 320l150 80-150 80-150-80 150-80z"
       id="b" />
    <path
       d="M320 150v170l-150 80V230l150-80z"
       id="c" />
    <path
       d="M470 400V230l100-50v270L320 590V480l150-80z"
       id="d" />
    <path
       d="M320 320l150 80V230l-150-80v170z"
       id="e" />
    <path
       d="M70 450l250 140V480l-150-80V230L70 180v270z"
       id="f" />
  </defs>
  <use
     xlink:href="#a"
     id="use3773"
     style="fill:#ffffff;stroke:#000000;stroke-opacity:1"
     transform="matrix(0.95,0,0,0.95,16,6.7497414)"
     x="0"
     y="0"
     width="100%"
     height="100%" />
  <use
     xlink:href="#b"
     id="use3775"
     transform="matrix(0.875425,0,0,0.875425,39.864,45.681367)"
     style="fill:#ffffff;stroke:#000000;stroke-opacity:1"
     x="0"
     y="0"
     width="100%"
     height="100%" />
  <use
     xlink:href="#c"
     id="use3777"
     transform="matrix(0.875425,0,0,0.875425,34.270875,36.359492)"
     style="fill:#757d8b;fill-opacity:1"
     x="0"
     y="0"
     width="100%"
     height="100%" />
  <use
     xlink:href="#d"
     id="use3779"
     transform="matrix(0.95,0,0,0.95,22.25,19.25)"
     style="fill:#757d8b;fill-opacity:1"
     x="0"
     y="0"
     width="100%"
     height="100%" />
  <use
     xlink:href="#d"
     fill-opacity="0"
     stroke="#2f3136"
     stroke-width="0"
     id="use3781" />
  <use
     xlink:href="#e"
     id="use3783"
     transform="matrix(0.875425,0,0,0.875425,45.457125,36.359492)"
     style="fill:#242526"
     x="0"
     y="0"
     width="100%"
     height="100%" />
  <use
     xlink:href="#f"
     id="use3785"
     transform="matrix(0.95,0,0,0.95,9.75,19.25)"
     style="fill:#242526"
     x="0"
     y="0"
     width="100%"
     height="100%" />
</svg>
